<svg viewBox="0 0 100 100" xmlns="http://www.w3.org/2000/svg">
  <defs>
    <linearGradient id="blue-yellow-gradient" x1="0%" y1="0%" x2="100%" y2="100%" gradientUnits="userSpaceOnUse">
      <stop offset="0%" stop-color="#007BFF" />
      <stop offset="50%" stop-color="#00CFFF" />
      <stop offset="100%" stop-color="#FFD700" />
    </linearGradient>
  </defs>
  <g fill="url(#blue-yellow-gradient)" >
    <path d="M50 0 L50 75 A1 1 0 0 1 0 75 L16 75 A1 1 0 0 0 34 75 L34 16 Z" />
    <path d="M58 0 A50 50 0 0 1 100 42 L84 42 A34 34 0 0 0 58 16 Z" />
    <path d="M100 58 A50 50 0 0 1 58 100 L58 84 A34 34 0 0 0 84 58 Z" />
  </g>
</svg>
